<?xml version="1.0" encoding="utf-8"?>
<svg viewBox="194.62 -14.439 139.553 140.537" xmlns="http://www.w3.org/2000/svg">
  <defs>
    <clipPath clipPathUnits="userSpaceOnUse" id="clipPath88">
      <path d="m 2649.31,3434.29 c 0,-289.02 -234.3,-523.32 -523.32,-523.32 -289.03,0 -523.33,234.3 -523.33,523.32 0,289.02 234.3,523.32 523.33,523.32 289.02,0 523.32,-234.3 523.32,-523.32" id="path86"/>
    </clipPath>
  </defs>
  <path d="m 2649.31,3434.29 c 0,-289.02 -234.3,-523.32 -523.32,-523.32 -289.03,0 -523.33,234.3 -523.33,523.32 0,289.02 234.3,523.32 523.33,523.32 289.02,0 523.32,-234.3 523.32,-523.32" style="fill:#44bfa7;fill-opacity:1;fill-rule:nonzero;stroke:none" id="path26" transform="matrix(0.133333, 0, 0, -0.133333, -19.067796, 513.242304)"/>
  <g id="g82" transform="matrix(0.133333, 0, 0, -0.133333, -19.067796, 513.242304)">
    <g id="g84" clip-path="url(#clipPath88)">
      <path d="m 1886.48,3478.33 c -2.93,-4.3 -11.91,-368.23 52.04,-442.74 h 361.97 c 0,0 98.86,279.4 31.52,442.74 h -447.68 2.15" style="fill:#150a05;fill-opacity:1;fill-rule:nonzero;stroke:none" id="path90"/>
      <path d="m 2031.56,3143.25 h 200.41 v 135.039 h -200.41 z" style="fill:#f9b095;fill-opacity:1;fill-rule:nonzero;stroke:none" id="path92"/>
      <path d="m 2177.64,3161.11 c -0.54,0 -1.09,0.01 -1.63,0.01 -32.51,0.27 -65.65,7.53 -95.84,19.5 -16.56,6.57 -34.54,15.44 -48.61,27.83 v 69.84 h 200.41 v -111.74 c -17.85,-3.16 -36.22,-5.44 -54.33,-5.44" style="fill:#e4a187;fill-opacity:1;fill-rule:nonzero;stroke:none" id="path94"/>
      <path d="m 2348.7,3532.36 c 0.68,4.97 9.12,13.06 12.8,15.79 8.24,6.08 16.54,-0.17 18.93,-8.09 2.15,-7.09 2.35,-15.07 2.87,-22.42 1.27,-17.93 -1.46,-35.53 -9.54,-51.7 -5.39,-10.79 -13.83,-19.66 -23.84,-26.35 0,0 -10.78,-5.36 -12.92,6.96 l 11.7,85.81" style="fill:#f9b095;fill-opacity:1;fill-rule:nonzero;stroke:none" id="path96"/>
      <path d="m 2346.99,3521.59 c 0.48,3.56 6.52,9.34 9.15,11.3 5.9,4.35 11.83,-0.12 13.56,-5.79 1.54,-5.07 1.68,-10.78 2.05,-16.04 0.89,-12.83 -1.06,-25.42 -6.83,-37 -3.86,-7.72 -9.91,-14.07 -17.06,-18.86 0,0 -7.71,-3.82 -9.25,4.99 l 8.38,61.4" style="fill:#dd9c83;fill-opacity:1;fill-rule:nonzero;stroke:none" id="path98"/>
      <path d="m 1909.74,3532.36 c -0.68,4.97 -9.12,13.06 -12.81,15.79 -8.22,6.08 -16.51,-0.17 -18.92,-8.09 -2.16,-7.09 -2.36,-15.07 -2.87,-22.42 -1.25,-17.93 1.46,-35.53 9.53,-51.7 5.39,-10.79 13.84,-19.66 23.85,-26.35 0,0 10.78,-5.36 12.92,6.96 l -11.7,85.81" style="fill:#f9b095;fill-opacity:1;fill-rule:nonzero;stroke:none" id="path100"/>
      <path d="m 1911.45,3521.59 c -0.48,3.56 -6.51,9.34 -9.16,11.3 -5.89,4.35 -11.83,-0.12 -13.54,-5.79 -1.54,-5.07 -1.67,-10.78 -2.07,-16.04 -0.88,-12.83 1.06,-25.42 6.84,-37 3.86,-7.72 9.9,-14.07 17.07,-18.86 0,0 7.71,-3.82 9.25,4.99 l -8.39,61.4" style="fill:#dd9c83;fill-opacity:1;fill-rule:nonzero;stroke:none" id="path102"/>
      <path d="m 2355.28,3516.22 c 0,-56.58 -9.76,-113.79 -36.45,-162.75 -23.32,-42.81 -58.31,-77.09 -95.88,-104.48 -30.47,-22.21 -63.16,-48.08 -101.71,-44.93 -40.22,3.31 -71.54,37.57 -100.91,64.31 -41.32,37.61 -73.92,84.32 -94,139.28 -12.38,33.87 -18.08,72.1 -18.08,108.57 0,182.89 100.07,297.93 223.51,297.93 123.45,0 223.52,-115.04 223.52,-297.93" style="fill:#f9b095;fill-opacity:1;fill-rule:nonzero;stroke:none" id="path104"/>
      <path d="m 2436.69,3082.2 -217.61,65.31 h -174.61 l -217.62,-65.31 c 0,0 -100.85,-42.88 -112.05,-178.62 h 416.96 416.98 c -11.2,135.74 -112.05,178.62 -112.05,178.62" style="fill:#f9b095;fill-opacity:1;fill-rule:nonzero;stroke:none" id="path106"/>
      <path d="m 2436.69,3082.2 -120.34,36.11 -184.59,-184.44 -185.11,184.28 -119.8,-35.95 c 0,0 -100.85,-42.88 -112.05,-178.62 h 416.96 416.98 c -11.2,135.74 -112.05,178.62 -112.05,178.62" style="fill:#ed3947;fill-opacity:1;fill-rule:nonzero;stroke:none" id="path108"/>
      <path d="m 1980.08,3741.51 c 0,0 107.64,-170.71 374.5,-199.75 0,0 50.5,194.47 -137.19,289.03 0,0 -143.64,59.28 -237.31,-89.28" style="fill:#351f17;fill-opacity:1;fill-rule:nonzero;stroke:none" id="path110"/>
      <path d="m 2007.67,3706.98 c 0,0 -69.5,-44.97 -99.68,-170.48 0,0 -32.34,236.5 134.95,266.04 l -35.27,-95.56" style="fill:#351f17;fill-opacity:1;fill-rule:nonzero;stroke:none" id="path112"/>
      <path d="m 2280.43,3561.43 c 0,0 71.64,-455.63 -41.55,-584.58 0,0 144.71,21.49 151.87,220.65 0,0 25.79,406.91 -72.14,547.34 l -38.18,-183.41" style="fill:#351f17;fill-opacity:1;fill-rule:nonzero;stroke:none" id="path114"/>
      <path d="m 1974.21,2976.85 c 0,0 -166.6,19.75 -120.75,532.13 0,0 11.46,284.56 178.1,291.11 l -9.64,-107.97 c 0,0 -95.77,-28.52 -83.4,-253.69 0,0 -9.75,-362.72 35.69,-461.58" style="fill:#351f17;fill-opacity:1;fill-rule:nonzero;stroke:none" id="path116"/>
    </g>
  </g>
</svg>