<?xml version="1.0" encoding="utf-8"?>
<svg viewBox="194.62 160.002 139.553 140.641" xmlns="http://www.w3.org/2000/svg">
  <defs>
    <clipPath clipPathUnits="userSpaceOnUse" id="clipPath220">
      <path d="m 2649.31,2125.98 c 0,-289.02 -234.3,-523.33 -523.32,-523.33 -289.03,0 -523.33,234.31 -523.33,523.33 0,289.02 234.3,523.32 523.33,523.32 289.02,0 523.32,-234.3 523.32,-523.32" id="path218"/>
    </clipPath>
  </defs>
  <path d="m 2649.31,2125.98 c 0,-289.02 -234.3,-523.33 -523.32,-523.33 -289.03,0 -523.33,234.31 -523.33,523.33 0,289.02 234.3,523.32 523.33,523.32 289.02,0 523.32,-234.3 523.32,-523.32" style="fill:#ed3947;fill-opacity:1;fill-rule:nonzero;stroke:none" id="path28" transform="matrix(0.133333, 0, 0, -0.133333, -19.067796, 513.242304)"/>
  <g id="g214" transform="matrix(0.133333, 0, 0, -0.133333, -19.067796, 513.242304)">
    <g id="g216" clip-path="url(#clipPath220)">
      <path d="m 1880.7,2169.24 c -2.94,-4.29 -11.92,-368.22 52.03,-442.73 h 361.98 c 0,0 98.85,279.4 31.51,442.73 h -447.68 2.16" style="fill:#a15a1c;fill-opacity:1;fill-rule:nonzero;stroke:none" id="path222"/>
      <path d="m 2025.78,1834.17 h 200.41 v 135.039 h -200.41 z" style="fill:#f9b095;fill-opacity:1;fill-rule:nonzero;stroke:none" id="path224"/>
      <path d="m 2171.86,1852.03 c -0.55,0 -1.09,0 -1.63,0.01 -32.52,0.27 -65.65,7.53 -95.84,19.5 -16.57,6.57 -34.55,15.43 -48.61,27.83 v 69.84 h 200.41 v -111.75 c -17.84,-3.15 -36.23,-5.43 -54.33,-5.43" style="fill:#e4a187;fill-opacity:1;fill-rule:nonzero;stroke:none" id="path226"/>
      <path d="m 2342.91,2223.27 c 0.69,4.98 9.13,13.07 12.81,15.79 8.24,6.09 16.54,-0.17 18.93,-8.08 2.15,-7.09 2.35,-15.07 2.86,-22.42 1.27,-17.93 -1.46,-35.53 -9.54,-51.7 -5.38,-10.79 -13.83,-19.66 -23.84,-26.36 0,0 -10.78,-5.36 -12.91,6.97 l 11.69,85.8" style="fill:#f9b095;fill-opacity:1;fill-rule:nonzero;stroke:none" id="path228"/>
      <path d="m 2341.2,2212.51 c 0.48,3.56 6.51,9.34 9.16,11.3 5.9,4.35 11.83,-0.13 13.55,-5.79 1.54,-5.07 1.68,-10.78 2.05,-16.04 0.9,-12.83 -1.05,-25.43 -6.82,-37 -3.86,-7.72 -9.91,-14.07 -17.06,-18.86 0,0 -7.72,-3.83 -9.25,4.99 l 8.37,61.4" style="fill:#dd9c83;fill-opacity:1;fill-rule:nonzero;stroke:none" id="path230"/>
      <path d="m 1903.96,2223.27 c -0.69,4.98 -9.13,13.07 -12.81,15.79 -8.23,6.09 -16.53,-0.17 -18.93,-8.08 -2.15,-7.09 -2.35,-15.07 -2.87,-22.42 -1.25,-17.93 1.46,-35.53 9.54,-51.7 5.39,-10.79 13.83,-19.66 23.84,-26.36 0,0 10.79,-5.36 12.92,6.97 l -11.69,85.8" style="fill:#f9b095;fill-opacity:1;fill-rule:nonzero;stroke:none" id="path232"/>
      <path d="m 1905.66,2212.51 c -0.47,3.56 -6.5,9.34 -9.15,11.3 -5.9,4.35 -11.83,-0.13 -13.55,-5.79 -1.53,-5.07 -1.68,-10.78 -2.05,-16.04 -0.9,-12.83 1.05,-25.43 6.82,-37 3.87,-7.72 9.91,-14.07 17.08,-18.86 0,0 7.71,-3.83 9.24,4.99 l -8.39,61.4" style="fill:#dd9c83;fill-opacity:1;fill-rule:nonzero;stroke:none" id="path234"/>
      <path d="m 2349.5,2207.14 c 0,-56.58 -9.77,-113.79 -36.45,-162.75 -23.33,-42.82 -58.32,-77.09 -95.89,-104.48 -30.46,-22.21 -63.15,-48.09 -101.71,-44.93 -40.21,3.3 -71.53,37.57 -100.9,64.31 -41.32,37.61 -73.92,84.32 -94.01,139.28 -12.38,33.86 -18.07,72.1 -18.07,108.57 0,182.89 100.07,297.93 223.52,297.93 123.43,0 223.51,-115.04 223.51,-297.93" style="fill:#f9b095;fill-opacity:1;fill-rule:nonzero;stroke:none" id="path236"/>
      <path d="m 2430.9,1773.12 -217.61,65.31 h -174.61 l -217.61,-65.31 c 0,0 -100.85,-42.88 -112.05,-178.63 h 416.97 416.97 c -11.21,135.75 -112.06,178.63 -112.06,178.63" style="fill:#f9b095;fill-opacity:1;fill-rule:nonzero;stroke:none" id="path238"/>
      <path d="m 2366.17,1792.54 -55.6,16.69 -184.58,-184.44 -185.12,184.27 -43.5,-13.04 c 0,0 16.3,-65.78 5.1,-201.53 h 223.52 228.52 c -11.2,135.75 11.66,198.05 11.66,198.05" style="fill:#3bbec5;fill-opacity:1;fill-rule:nonzero;stroke:none" id="path240"/>
      <path d="m 1915.65,2315.44 c 0,0 52.92,-26.86 190.46,-34.02 l 30.09,97.73 7.16,-97.73 c 0,0 41.56,-2.87 113.2,8.6 l 12.89,54.44 15.76,-51.58 c 0,0 38.69,2.86 49.96,26.78 0,0 -22.74,179.54 -188.94,195.31 0,0 -188.28,-2.74 -230.58,-199.53" style="fill:#f9a72b;fill-opacity:1;fill-rule:nonzero;stroke:none" id="path242"/>
      <path d="m 2004.38,2487.13 c -5.15,2.53 21.16,35.72 22.68,37.26 29.79,29.88 75.09,40.2 116.01,37.75 109.99,-6.58 194.02,-73.05 232.51,-175.8 13.26,-35.4 22.4,-75.84 25.68,-113.52 0.01,-0.07 21.5,-246.65 0,-490.81 0,0 -8.58,-84.03 -1.43,-174.94 0,0 -90.26,-21.36 -85.96,151.38 l 8.59,246.44 12.71,216.79 c 0,0 5.92,101.29 -34.2,119.91 l -296.59,145.54" style="fill:#f9a72b;fill-opacity:1;fill-rule:nonzero;stroke:none" id="path244"/>
      <path d="m 2068.55,2516.96 c 0,0 -188.91,-6.46 -177.4,-277.9 l 11.32,-15.53 c 0,0 60.36,161.05 157.79,196.87 l 8.29,96.56" style="fill:#f9a72b;fill-opacity:1;fill-rule:nonzero;stroke:none" id="path246"/>
      <path d="m 1970.75,1818.03 -73.38,-22.01 c -40.56,124.33 -18.48,360.84 -18.48,360.84 0,0 16.96,-30.9 32.46,-27.51 0,-0.01 12.8,-45.66 25.91,-69.19 -0.1,-66.11 2.33,-165.44 33.49,-242.13" style="fill:#f9a72b;fill-opacity:1;fill-rule:nonzero;stroke:none" id="path248"/>
    </g>
  </g>
</svg>