<?xml version="1.0" encoding="utf-8"?>
<svg viewBox="20.179 334.444 139.553 139.553" xmlns="http://www.w3.org/2000/svg">
  <defs>
    <clipPath clipPathUnits="userSpaceOnUse" id="clipPath288">
      <path d="M 1341,817.672 C 1341,528.648 1106.7,294.34 817.676,294.34 c -289.024,0 -523.324,234.308 -523.324,523.332 0,289.018 234.3,523.318 523.324,523.318 289.024,0 523.324,-234.3 523.324,-523.318" id="path286"/>
    </clipPath>
  </defs>
  <path d="M 1341,817.672 C 1341,528.648 1106.7,294.34 817.676,294.34 c -289.024,0 -523.324,234.308 -523.324,523.332 0,289.018 234.3,523.318 523.324,523.318 289.024,0 523.324,-234.3 523.324,-523.318" style="fill:#724230;fill-opacity:1;fill-rule:nonzero;stroke:none" id="path20" transform="matrix(0.133333, 0, 0, -0.133333, -19.067796, 513.242304)"/>
  <g id="g282" transform="matrix(0.133333, 0, 0, -0.133333, -19.067796, 513.242304)">
    <g id="g284" clip-path="url(#clipPath288)">
      <path d="M 714.91,538.191 H 915.328 V 673.218 H 714.91 Z" style="fill:#f9b095;fill-opacity:1;fill-rule:nonzero;stroke:none" id="path290"/>
      <path d="m 861.094,556.051 c -0.578,0 -1.153,0.008 -1.727,0.008 -32.515,0.261 -65.656,7.531 -95.847,19.492 -16.559,6.578 -34.54,15.441 -48.61,27.828 v 69.84 H 915.328 V 561.48 c -17.816,-3.152 -36.164,-5.429 -54.234,-5.429" style="fill:#e4a187;fill-opacity:1;fill-rule:nonzero;stroke:none" id="path292"/>
      <path d="m 1036.29,923.289 c 0.69,4.902 9.3,12.902 13.06,15.59 8.38,6.012 16.85,-0.168 19.29,-7.988 2.19,-7 2.4,-14.879 2.92,-22.141 1.28,-17.711 -1.48,-35.102 -9.72,-51.078 -5.49,-10.66 -14.1,-19.41 -24.31,-26.031 0,0 -10.98,-5.289 -13.16,6.89 l 11.92,84.758" style="fill:#f9b095;fill-opacity:1;fill-rule:nonzero;stroke:none" id="path294"/>
      <path d="m 1034.54,912.648 c 0.49,3.512 6.65,9.243 9.34,11.161 6,4.3 12.06,-0.118 13.81,-5.719 1.56,-5.008 1.71,-10.641 2.09,-15.848 0.92,-12.672 -1.06,-25.101 -6.96,-36.543 -3.92,-7.629 -10.09,-13.89 -17.39,-18.629 0,0 -7.86,-3.789 -9.42,4.918 l 8.53,60.66" style="fill:#dd9c83;fill-opacity:1;fill-rule:nonzero;stroke:none" id="path296"/>
      <path d="m 588.844,923.289 c -0.684,4.902 -9.293,12.902 -13.059,15.59 -8.383,6.012 -16.84,-0.168 -19.293,-7.988 -2.183,-7 -2.39,-14.879 -2.914,-22.141 -1.289,-17.711 1.485,-35.102 9.719,-51.078 5.496,-10.66 14.101,-19.41 24.301,-26.031 0,0 10.992,-5.289 13.172,6.89 l -11.926,84.758" style="fill:#f9b095;fill-opacity:1;fill-rule:nonzero;stroke:none" id="path298"/>
      <path d="m 590.598,912.648 c -0.496,3.512 -6.649,9.243 -9.344,11.161 -6,4.3 -12.055,-0.118 -13.805,-5.719 -1.566,-5.008 -1.711,-10.641 -2.097,-15.848 -0.914,-12.672 1.074,-25.101 6.968,-36.543 3.926,-7.629 10.086,-13.89 17.383,-18.629 0,0 7.863,-3.789 9.43,4.918 l -8.535,60.66" style="fill:#dd9c83;fill-opacity:1;fill-rule:nonzero;stroke:none" id="path300"/>
      <path d="m 1043,907.34 c 0,-55.879 -9.95,-112.399 -37.15,-160.758 C 982.07,704.289 946.402,670.43 908.113,643.379 877.055,621.441 843.734,595.871 804.43,599 c -40.985,3.25 -72.91,37.102 -102.852,63.512 -42.121,37.16 -75.351,83.297 -95.824,137.59 -12.625,33.449 -18.418,71.218 -18.418,107.238 0,180.66 102.004,294.31 227.832,294.31 C 940.996,1201.65 1043,1088 1043,907.34" style="fill:#f9b095;fill-opacity:1;fill-rule:nonzero;stroke:none" id="path302"/>
      <path d="m 1165.09,477.129 -249.762,65.32 H 714.91 l -249.758,-65.32 c 0,0 -115.757,-42.867 -128.613,-178.617 H 815.117 1293.7 c -12.86,135.75 -128.61,178.617 -128.61,178.617" style="fill:#f9b095;fill-opacity:1;fill-rule:nonzero;stroke:none" id="path304"/>
      <path d="m 1165.09,477.129 -249.762,65.32 H 714.91 l -249.758,-65.32 c 0,0 -115.757,-42.867 -128.613,-178.617 H 815.117 1293.7 c -12.86,135.75 -128.61,178.617 -128.61,178.617" style="fill:#ffffff;fill-opacity:1;fill-rule:nonzero;stroke:none" id="path306"/>
      <path d="M 1165.09,477.129 980.25,525.469 815.117,298.512 651.77,525.93 465.152,477.129 c 0,0 -115.757,-42.867 -128.613,-178.617 H 815.117 1293.7 c -12.86,135.75 -128.61,178.617 -128.61,178.617" style="fill:#062138;fill-opacity:1;fill-rule:nonzero;stroke:none" id="path308"/>
      <path d="M 793.203,412.219 747.184,298.512 h 130.75 l -44.852,113.707 h -39.879" style="fill:#f9a72b;fill-opacity:1;fill-rule:nonzero;stroke:none" id="path310"/>
      <path d="m 812.109,540.219 -58.589,-78.59 40.722,-49.719 19.942,0.32 19.925,0.329 39.094,51.019 -61.094,76.641" style="fill:#f9a72b;fill-opacity:1;fill-rule:nonzero;stroke:none" id="path312"/>
      <path d="m 753.52,461.629 56.16,75.332 c -0.004,0 -0.008,-0.012 -0.008,-0.012 l -56.152,-75.32" style="fill:#d3d2d2;fill-opacity:1;fill-rule:nonzero;stroke:none" id="path314"/>
      <path d="m 794.242,411.91 -40.722,49.719 56.152,75.32 c -6.586,-17.34 -18.414,-32.597 -22.817,-50.918 -4.531,-18.812 4.473,-37.312 24.032,-41.609 1.992,-0.442 3.922,-0.641 5.801,-0.641 15.98,0 27.839,14.899 34.558,28.16 2.016,4.008 3.809,8.161 5.418,12.379 l 16.539,-20.742 -39.094,-51.019 -39.867,-0.649" style="fill:#cd8923;fill-opacity:1;fill-rule:nonzero;stroke:none" id="path316"/>
      <path d="m 587.875,929.578 c 0,0 33.438,203.482 137.75,183.472 0,0 94.313,-58.67 172.91,1.38 0,0 95.36,3.21 147.705,-184.852 0,0 13.06,200.622 -130.912,272.072 0,0 -133.199,61.45 -247.187,-30.01 0,0 -107.981,-85.32 -80.266,-242.062" style="fill:#351f17;fill-opacity:1;fill-rule:nonzero;stroke:none" id="path318"/>
      <path d="M 815.117,298.512 651.77,525.93 521.168,491.781 688.066,374.27 l -42.867,-18.911 77.16,-56.847 h 92.758" style="fill:#001930;fill-opacity:1;fill-rule:nonzero;stroke:none" id="path320"/>
      <path d="M 815.117,298.199 978.461,525.621 1109.07,491.469 942.164,373.961 985.039,355.051 907.875,298.199 H 815.117" style="fill:#001930;fill-opacity:1;fill-rule:nonzero;stroke:none" id="path322"/>
      <path d="m 616.617,537.672 97.953,45.949 99.868,-41.711 99.863,41.711 104.659,-45.949 -147.983,-99.094 -56.539,80.992 -60.918,-80.992 -136.903,99.094" style="fill:#e5e4e4;fill-opacity:1;fill-rule:nonzero;stroke:none" id="path324"/>
    </g>
  </g>
</svg>