<?xml version="1.0" encoding="utf-8"?>
<svg viewBox="73.74 120.488 225.472 109.103" xmlns="http://www.w3.org/2000/svg">
  <defs>
    <clipPath id="3f9137bbb7">
      <path d="M 182 120.476562 L 219.945312 120.476562 L 219.945312 163 L 182 163 Z M 182 120.476562 " clip-rule="nonzero"/>
    </clipPath>
    <clipPath id="eca7b8a1e6">
      <path d="M 154.695312 143 L 193 143 L 193 184.976562 L 154.695312 184.976562 Z M 154.695312 143 " clip-rule="nonzero"/>
    </clipPath>
  </defs>
  <g clip-path="url(#3f9137bbb7)">
    <path fill="#000000" d="M 214.035156 162.125 C 213.867188 162.125 213.707031 162.082031 213.5625 162 L 203.523438 156.152344 L 186.523438 156.152344 C 186.242188 156.152344 185.957031 156.121094 185.679688 156.066406 C 185.398438 156.011719 185.128906 155.925781 184.867188 155.816406 C 184.601562 155.707031 184.351562 155.570312 184.117188 155.410156 C 183.878906 155.253906 183.660156 155.070312 183.457031 154.867188 C 183.257812 154.664062 183.078125 154.441406 182.917969 154.203125 C 182.761719 153.964844 182.625 153.714844 182.515625 153.449219 C 182.410156 153.183594 182.324219 152.910156 182.269531 152.628906 C 182.214844 152.34375 182.1875 152.0625 182.1875 151.773438 L 182.1875 124.863281 C 182.1875 124.578125 182.214844 124.292969 182.269531 124.011719 C 182.324219 123.730469 182.40625 123.457031 182.515625 123.191406 C 182.625 122.925781 182.761719 122.671875 182.917969 122.433594 C 183.078125 122.195312 183.257812 121.972656 183.457031 121.769531 C 183.660156 121.566406 183.878906 121.386719 184.117188 121.226562 C 184.351562 121.066406 184.601562 120.929688 184.867188 120.820312 C 185.128906 120.710938 185.398438 120.628906 185.679688 120.570312 C 185.957031 120.515625 186.242188 120.488281 186.523438 120.488281 L 215.5625 120.488281 C 215.847656 120.488281 216.128906 120.515625 216.410156 120.570312 C 216.6875 120.628906 216.960938 120.710938 217.222656 120.820312 C 217.484375 120.929688 217.734375 121.066406 217.972656 121.226562 C 218.210938 121.386719 218.429688 121.566406 218.628906 121.769531 C 218.832031 121.972656 219.011719 122.195312 219.167969 122.433594 C 219.328125 122.671875 219.460938 122.925781 219.570312 123.191406 C 219.679688 123.457031 219.761719 123.730469 219.816406 124.011719 C 219.875 124.292969 219.902344 124.578125 219.902344 124.863281 L 219.902344 151.773438 C 219.902344 152.0625 219.875 152.34375 219.816406 152.628906 C 219.761719 152.910156 219.679688 153.183594 219.570312 153.449219 C 219.460938 153.714844 219.328125 153.964844 219.167969 154.203125 C 219.011719 154.441406 218.832031 154.664062 218.628906 154.867188 C 218.429688 155.070312 218.207031 155.253906 217.972656 155.410156 C 217.734375 155.570312 217.484375 155.707031 217.222656 155.816406 C 216.960938 155.925781 216.6875 156.011719 216.410156 156.066406 C 216.128906 156.121094 215.847656 156.152344 215.5625 156.152344 L 214.984375 156.152344 L 214.984375 161.167969 C 214.984375 161.433594 214.890625 161.660156 214.707031 161.84375 C 214.519531 162.03125 214.296875 162.125 214.035156 162.125 Z M 186.523438 122.398438 C 186.203125 122.398438 185.890625 122.460938 185.589844 122.585938 C 185.289062 122.710938 185.027344 122.890625 184.796875 123.121094 C 184.566406 123.351562 184.390625 123.617188 184.265625 123.921875 C 184.144531 124.222656 184.082031 124.539062 184.082031 124.863281 L 184.082031 151.773438 C 184.082031 152.101562 184.144531 152.414062 184.265625 152.71875 C 184.390625 153.019531 184.570312 153.285156 184.796875 153.515625 C 185.027344 153.746094 185.289062 153.925781 185.589844 154.050781 C 185.890625 154.175781 186.203125 154.238281 186.523438 154.238281 L 203.773438 154.238281 C 203.945312 154.238281 204.101562 154.28125 204.25 154.367188 L 213.085938 159.515625 L 213.085938 155.195312 C 213.085938 154.929688 213.179688 154.703125 213.363281 154.519531 C 213.546875 154.332031 213.773438 154.238281 214.035156 154.238281 L 215.5625 154.238281 C 215.882812 154.238281 216.195312 154.175781 216.496094 154.050781 C 216.796875 153.925781 217.058594 153.746094 217.289062 153.515625 C 217.515625 153.285156 217.695312 153.019531 217.816406 152.714844 C 217.941406 152.414062 218.003906 152.097656 218.003906 151.773438 L 218.003906 124.863281 C 218.003906 124.539062 217.941406 124.222656 217.820312 123.921875 C 217.695312 123.617188 217.515625 123.351562 217.289062 123.121094 C 217.058594 122.890625 216.796875 122.710938 216.496094 122.585938 C 216.195312 122.460938 215.882812 122.398438 215.5625 122.398438 Z M 186.523438 122.398438 " fill-opacity="1" fill-rule="nonzero"/>
  </g>
  <path fill="#000000" d="M 206.890625 133.796875 L 195.199219 133.796875 C 194.9375 133.796875 194.714844 133.703125 194.527344 133.519531 C 194.34375 133.332031 194.25 133.105469 194.25 132.84375 C 194.25 132.578125 194.34375 132.351562 194.527344 132.167969 C 194.714844 131.980469 194.9375 131.886719 195.199219 131.886719 L 206.890625 131.886719 C 207.152344 131.886719 207.375 131.980469 207.558594 132.167969 C 207.746094 132.351562 207.839844 132.578125 207.839844 132.84375 C 207.839844 133.105469 207.746094 133.332031 207.558594 133.519531 C 207.375 133.703125 207.152344 133.796875 206.890625 133.796875 Z M 206.890625 133.796875 " fill-opacity="1" fill-rule="nonzero"/>
  <path fill="#000000" d="M 201.046875 133.796875 C 200.785156 133.796875 200.558594 133.703125 200.375 133.519531 C 200.191406 133.332031 200.097656 133.105469 200.097656 132.84375 L 200.097656 129.964844 C 200.097656 129.699219 200.191406 129.476562 200.375 129.289062 C 200.558594 129.101562 200.785156 129.007812 201.046875 129.007812 C 201.308594 129.007812 201.53125 129.101562 201.714844 129.289062 C 201.898438 129.476562 201.992188 129.699219 201.992188 129.964844 L 201.992188 132.84375 C 201.992188 133.105469 201.898438 133.332031 201.714844 133.519531 C 201.53125 133.703125 201.308594 133.796875 201.046875 133.796875 Z M 201.046875 133.796875 " fill-opacity="1" fill-rule="nonzero"/>
  <path fill="#000000" d="M 196.511719 145.996094 C 196.304688 145.996094 196.117188 145.933594 195.949219 145.808594 C 195.78125 145.6875 195.664062 145.523438 195.605469 145.324219 C 195.542969 145.121094 195.546875 144.921875 195.613281 144.726562 C 195.683594 144.527344 195.804688 144.371094 195.976562 144.25 C 198.03125 142.867188 199.800781 141.179688 201.285156 139.183594 C 202.769531 137.191406 203.878906 135.003906 204.617188 132.625 C 204.679688 132.367188 204.820312 132.167969 205.042969 132.03125 C 205.265625 131.890625 205.503906 131.851562 205.757812 131.910156 C 206.011719 131.972656 206.207031 132.113281 206.347656 132.339844 C 206.484375 132.5625 206.523438 132.804688 206.464844 133.058594 C 206.394531 133.363281 204.648438 140.585938 197.042969 145.828125 C 196.882812 145.941406 196.707031 145.996094 196.511719 145.996094 Z M 196.511719 145.996094 " fill-opacity="1" fill-rule="nonzero"/>
  <path fill="#000000" d="M 205.542969 145.996094 C 205.46875 145.996094 205.394531 145.988281 205.324219 145.96875 C 200.902344 144.902344 196.574219 138.9375 196.390625 138.683594 C 196.238281 138.46875 196.183594 138.234375 196.222656 137.972656 C 196.265625 137.710938 196.390625 137.503906 196.601562 137.347656 C 196.816406 137.195312 197.050781 137.136719 197.308594 137.179688 C 197.566406 137.21875 197.773438 137.347656 197.925781 137.5625 C 197.964844 137.617188 202.027344 143.207031 205.761719 144.109375 C 205.996094 144.167969 206.183594 144.292969 206.320312 144.492188 C 206.457031 144.691406 206.511719 144.910156 206.484375 145.152344 C 206.457031 145.394531 206.351562 145.59375 206.171875 145.753906 C 205.992188 145.914062 205.785156 145.996094 205.542969 145.996094 Z M 205.542969 145.996094 " fill-opacity="1" fill-rule="nonzero"/>
  <g clip-path="url(#eca7b8a1e6)">
    <path fill="#000000" d="M 160.542969 184.964844 C 160.28125 184.964844 160.058594 184.871094 159.871094 184.683594 C 159.6875 184.5 159.59375 184.273438 159.59375 184.007812 L 159.59375 178.992188 L 159.015625 178.992188 C 158.730469 178.992188 158.449219 178.960938 158.167969 178.90625 C 157.890625 178.847656 157.617188 178.765625 157.355469 178.65625 C 157.09375 178.546875 156.84375 178.410156 156.605469 178.25 C 156.367188 178.089844 156.148438 177.910156 155.949219 177.707031 C 155.746094 177.503906 155.566406 177.28125 155.410156 177.042969 C 155.25 176.804688 155.117188 176.554688 155.007812 176.289062 C 154.898438 176.023438 154.816406 175.75 154.761719 175.46875 C 154.703125 175.183594 154.675781 174.902344 154.675781 174.613281 L 154.675781 147.703125 C 154.675781 147.414062 154.703125 147.132812 154.761719 146.847656 C 154.816406 146.566406 154.898438 146.292969 155.007812 146.027344 C 155.117188 145.761719 155.25 145.511719 155.410156 145.273438 C 155.566406 145.035156 155.746094 144.8125 155.949219 144.609375 C 156.148438 144.40625 156.367188 144.226562 156.605469 144.066406 C 156.84375 143.90625 157.09375 143.769531 157.355469 143.660156 C 157.617188 143.550781 157.890625 143.46875 158.167969 143.410156 C 158.449219 143.355469 158.730469 143.328125 159.015625 143.324219 L 183.132812 143.324219 C 183.394531 143.324219 183.617188 143.417969 183.804688 143.605469 C 183.988281 143.792969 184.082031 144.019531 184.082031 144.28125 L 184.082031 151.773438 C 184.082031 152.101562 184.144531 152.414062 184.265625 152.71875 C 184.390625 153.019531 184.570312 153.285156 184.796875 153.515625 C 185.027344 153.746094 185.289062 153.925781 185.589844 154.050781 C 185.890625 154.175781 186.203125 154.238281 186.523438 154.238281 L 191.445312 154.238281 C 191.707031 154.238281 191.929688 154.332031 192.113281 154.519531 C 192.300781 154.707031 192.390625 154.929688 192.390625 155.195312 L 192.390625 174.613281 C 192.390625 174.902344 192.363281 175.183594 192.308594 175.46875 C 192.253906 175.75 192.167969 176.023438 192.058594 176.289062 C 191.953125 176.554688 191.816406 176.804688 191.660156 177.042969 C 191.5 177.28125 191.320312 177.503906 191.121094 177.707031 C 190.917969 177.910156 190.699219 178.089844 190.460938 178.25 C 190.226562 178.410156 189.976562 178.546875 189.710938 178.65625 C 189.449219 178.765625 189.179688 178.847656 188.898438 178.90625 C 188.621094 178.960938 188.335938 178.992188 188.050781 178.992188 L 171.054688 178.992188 L 161.015625 184.835938 C 160.871094 184.921875 160.710938 184.964844 160.542969 184.964844 Z M 159.015625 145.238281 C 158.691406 145.238281 158.378906 145.300781 158.082031 145.425781 C 157.78125 145.550781 157.515625 145.730469 157.289062 145.960938 C 157.058594 146.191406 156.882812 146.457031 156.757812 146.761719 C 156.632812 147.0625 156.570312 147.375 156.570312 147.703125 L 156.570312 174.613281 C 156.570312 174.941406 156.632812 175.253906 156.757812 175.558594 C 156.882812 175.859375 157.058594 176.125 157.289062 176.355469 C 157.515625 176.585938 157.78125 176.765625 158.082031 176.890625 C 158.378906 177.015625 158.691406 177.078125 159.015625 177.078125 L 160.542969 177.078125 C 160.804688 177.078125 161.027344 177.171875 161.210938 177.359375 C 161.398438 177.546875 161.492188 177.769531 161.492188 178.035156 L 161.492188 182.351562 L 170.328125 177.207031 C 170.472656 177.121094 170.632812 177.078125 170.800781 177.078125 L 188.050781 177.078125 C 188.375 177.078125 188.6875 177.015625 188.988281 176.890625 C 189.285156 176.765625 189.550781 176.585938 189.78125 176.355469 C 190.007812 176.125 190.1875 175.859375 190.308594 175.554688 C 190.433594 175.253906 190.496094 174.941406 190.496094 174.613281 L 190.496094 156.152344 L 186.523438 156.152344 C 186.242188 156.152344 185.957031 156.121094 185.679688 156.066406 C 185.398438 156.011719 185.128906 155.925781 184.867188 155.816406 C 184.601562 155.707031 184.351562 155.570312 184.117188 155.410156 C 183.878906 155.253906 183.660156 155.070312 183.457031 154.867188 C 183.257812 154.664062 183.078125 154.441406 182.917969 154.203125 C 182.761719 153.964844 182.625 153.714844 182.515625 153.449219 C 182.410156 153.183594 182.324219 152.910156 182.269531 152.628906 C 182.214844 152.34375 182.1875 152.0625 182.1875 151.773438 L 182.1875 145.238281 Z M 159.015625 145.238281 " fill-opacity="1" fill-rule="nonzero"/>
  </g>
  <path fill="#000000" d="M 173.535156 151.804688 C 173.859375 151.804688 174.152344 151.898438 174.417969 152.085938 C 174.683594 152.269531 174.871094 152.515625 174.984375 152.824219 L 180.605469 168.207031 C 180.679688 168.402344 180.703125 168.605469 180.675781 168.8125 C 180.652344 169.019531 180.578125 169.210938 180.460938 169.382812 C 180.34375 169.554688 180.191406 169.6875 180.007812 169.785156 C 179.824219 169.882812 179.628906 169.929688 179.417969 169.929688 C 179.148438 169.929688 178.902344 169.851562 178.683594 169.691406 C 178.464844 169.53125 178.308594 169.324219 178.222656 169.066406 L 173.535156 155.304688 L 168.847656 169.066406 C 168.761719 169.324219 168.609375 169.53125 168.386719 169.691406 C 168.167969 169.851562 167.921875 169.929688 167.652344 169.929688 C 167.445312 169.929688 167.25 169.882812 167.066406 169.785156 C 166.882812 169.6875 166.730469 169.554688 166.609375 169.382812 C 166.492188 169.210938 166.421875 169.019531 166.394531 168.8125 C 166.367188 168.605469 166.390625 168.402344 166.464844 168.207031 L 172.085938 152.820312 C 172.199219 152.511719 172.386719 152.265625 172.652344 152.082031 C 172.917969 151.894531 173.210938 151.804688 173.535156 151.804688 Z M 168.890625 163.535156 L 178.34375 163.535156 L 178.34375 165.957031 L 168.890625 165.957031 Z M 168.890625 163.535156 " fill-opacity="1" fill-rule="nonzero"/>
  <g fill="#272727" fill-opacity="1">
    <g transform="translate(108.984306, 229.543998)">
      <g>
        <path d="M 1.6875 -0.859375 L 4.109375 -0.859375 L 4.109375 0 L 0.734375 0 L 0.734375 -5.59375 L 1.6875 -5.59375 Z M 1.6875 -0.859375 "/>
      </g>
    </g>
  </g>
  <g fill="#272727" fill-opacity="1">
    <g transform="translate(114.648352, 229.543998)">
      <g>
        <path d="M 4.359375 -1.265625 L 1.53125 -1.265625 L 0.984375 0 L 0.015625 0 L 2.484375 -5.59375 L 3.453125 -5.59375 L 5.890625 0 L 4.890625 0 Z M 3.984375 -2.109375 L 2.9375 -4.59375 L 1.875 -2.109375 Z M 3.984375 -2.109375 "/>
      </g>
    </g>
  </g>
  <g fill="#272727" fill-opacity="1">
    <g transform="translate(121.944411, 229.543998)">
      <g>
        <path d="M 5.59375 0 L 4.65625 0 L 1.6875 -4.015625 L 1.6875 0 L 0.734375 0 L 0.734375 -5.59375 L 1.65625 -5.59375 L 4.65625 -1.578125 L 4.65625 -5.59375 L 5.59375 -5.59375 Z M 5.59375 0 "/>
      </g>
    </g>
  </g>
  <g fill="#272727" fill-opacity="1">
    <g transform="translate(129.672477, 229.543998)">
      <g>
        <path d="M 4.5625 -2.75 L 5.390625 -2.75 L 5.390625 -0.6875 C 5.097656 -0.46875 4.753906 -0.289062 4.359375 -0.15625 C 3.972656 -0.0195312 3.59375 0.046875 3.21875 0.046875 C 2.382812 0.046875 1.679688 -0.222656 1.109375 -0.765625 C 0.546875 -1.316406 0.265625 -1.992188 0.265625 -2.796875 C 0.265625 -3.597656 0.550781 -4.269531 1.125 -4.8125 C 1.707031 -5.351562 2.421875 -5.625 3.265625 -5.625 C 3.660156 -5.625 4.050781 -5.550781 4.4375 -5.40625 C 4.820312 -5.269531 5.148438 -5.082031 5.421875 -4.84375 L 4.890625 -4.140625 C 4.429688 -4.566406 3.890625 -4.78125 3.265625 -4.78125 C 2.703125 -4.78125 2.222656 -4.585938 1.828125 -4.203125 C 1.429688 -3.816406 1.234375 -3.347656 1.234375 -2.796875 C 1.234375 -2.234375 1.429688 -1.757812 1.828125 -1.375 C 2.222656 -1 2.707031 -0.8125 3.28125 -0.8125 C 3.707031 -0.8125 4.132812 -0.9375 4.5625 -1.1875 Z M 4.5625 -2.75 "/>
      </g>
    </g>
  </g>
  <g fill="#272727" fill-opacity="1">
    <g transform="translate(137.05654, 229.543998)">
      <g>
        <path d="M 5.5 -5.59375 L 5.5 -2.3125 C 5.5 -1.582031 5.28125 -1.003906 4.84375 -0.578125 C 4.414062 -0.160156 3.820312 0.046875 3.0625 0.046875 C 2.300781 0.046875 1.703125 -0.160156 1.265625 -0.578125 C 0.835938 -1.003906 0.625 -1.582031 0.625 -2.3125 L 0.625 -5.59375 L 1.5625 -5.59375 L 1.5625 -2.3125 C 1.5625 -1.84375 1.695312 -1.472656 1.96875 -1.203125 C 2.238281 -0.941406 2.609375 -0.8125 3.078125 -0.8125 C 3.535156 -0.8125 3.894531 -0.941406 4.15625 -1.203125 C 4.414062 -1.472656 4.546875 -1.84375 4.546875 -2.3125 L 4.546875 -5.59375 Z M 5.5 -5.59375 "/>
      </g>
    </g>
  </g>
  <g fill="#272727" fill-opacity="1">
    <g transform="translate(144.560597, 229.543998)">
      <g>
        <path d="M 4.359375 -1.265625 L 1.53125 -1.265625 L 0.984375 0 L 0.015625 0 L 2.484375 -5.59375 L 3.453125 -5.59375 L 5.890625 0 L 4.890625 0 Z M 3.984375 -2.109375 L 2.9375 -4.59375 L 1.875 -2.109375 Z M 3.984375 -2.109375 "/>
      </g>
    </g>
  </g>
  <g fill="#272727" fill-opacity="1">
    <g transform="translate(151.856654, 229.543998)">
      <g>
        <path d="M 4.5625 -2.75 L 5.390625 -2.75 L 5.390625 -0.6875 C 5.097656 -0.46875 4.753906 -0.289062 4.359375 -0.15625 C 3.972656 -0.0195312 3.59375 0.046875 3.21875 0.046875 C 2.382812 0.046875 1.679688 -0.222656 1.109375 -0.765625 C 0.546875 -1.316406 0.265625 -1.992188 0.265625 -2.796875 C 0.265625 -3.597656 0.550781 -4.269531 1.125 -4.8125 C 1.707031 -5.351562 2.421875 -5.625 3.265625 -5.625 C 3.660156 -5.625 4.050781 -5.550781 4.4375 -5.40625 C 4.820312 -5.269531 5.148438 -5.082031 5.421875 -4.84375 L 4.890625 -4.140625 C 4.429688 -4.566406 3.890625 -4.78125 3.265625 -4.78125 C 2.703125 -4.78125 2.222656 -4.585938 1.828125 -4.203125 C 1.429688 -3.816406 1.234375 -3.347656 1.234375 -2.796875 C 1.234375 -2.234375 1.429688 -1.757812 1.828125 -1.375 C 2.222656 -1 2.707031 -0.8125 3.28125 -0.8125 C 3.707031 -0.8125 4.132812 -0.9375 4.5625 -1.1875 Z M 4.5625 -2.75 "/>
      </g>
    </g>
  </g>
  <g fill="#272727" fill-opacity="1">
    <g transform="translate(159.240714, 229.543998)">
      <g>
        <path d="M 4.734375 -4.75 L 1.6875 -4.75 L 1.6875 -3.234375 L 4.421875 -3.234375 L 4.421875 -2.390625 L 1.6875 -2.390625 L 1.6875 -0.84375 L 4.828125 -0.84375 L 4.828125 0 L 0.734375 0 L 0.734375 -5.59375 L 4.734375 -5.59375 Z M 4.734375 -4.75 "/>
      </g>
    </g>
  </g>
  <g fill="#272727" fill-opacity="1">
    <g transform="translate(169.336785, 229.543998)">
      <g>
        <path d="M 1.6875 -0.859375 L 4.109375 -0.859375 L 4.109375 0 L 0.734375 0 L 0.734375 -5.59375 L 1.6875 -5.59375 Z M 1.6875 -0.859375 "/>
      </g>
    </g>
  </g>
  <g fill="#272727" fill-opacity="1">
    <g transform="translate(175.00083, 229.543998)">
      <g>
        <path d="M 4.734375 -4.75 L 1.6875 -4.75 L 1.6875 -3.234375 L 4.421875 -3.234375 L 4.421875 -2.390625 L 1.6875 -2.390625 L 1.6875 -0.84375 L 4.828125 -0.84375 L 4.828125 0 L 0.734375 0 L 0.734375 -5.59375 L 4.734375 -5.59375 Z M 4.734375 -4.75 "/>
      </g>
    </g>
  </g>
  <g fill="#272727" fill-opacity="1">
    <g transform="translate(181.64088, 229.543998)">
      <g>
        <path d="M 4.359375 -1.265625 L 1.53125 -1.265625 L 0.984375 0 L 0.015625 0 L 2.484375 -5.59375 L 3.453125 -5.59375 L 5.890625 0 L 4.890625 0 Z M 3.984375 -2.109375 L 2.9375 -4.59375 L 1.875 -2.109375 Z M 3.984375 -2.109375 "/>
      </g>
    </g>
  </g>
  <g fill="#272727" fill-opacity="1">
    <g transform="translate(188.936936, 229.543998)">
      <g>
        <path d="M 4.28125 0 L 3.265625 -1.703125 C 3.210938 -1.691406 3.128906 -1.6875 3.015625 -1.6875 L 1.6875 -1.6875 L 1.6875 0 L 0.734375 0 L 0.734375 -5.59375 L 3.015625 -5.59375 C 3.722656 -5.59375 4.273438 -5.425781 4.671875 -5.09375 C 5.066406 -4.757812 5.265625 -4.289062 5.265625 -3.6875 C 5.265625 -3.238281 5.160156 -2.859375 4.953125 -2.546875 C 4.753906 -2.242188 4.472656 -2.019531 4.109375 -1.875 L 5.359375 0 Z M 1.6875 -2.53125 L 3.015625 -2.53125 C 3.921875 -2.53125 4.375 -2.90625 4.375 -3.65625 C 4.375 -4.382812 3.921875 -4.75 3.015625 -4.75 L 1.6875 -4.75 Z M 1.6875 -2.53125 "/>
      </g>
    </g>
  </g>
  <g fill="#272727" fill-opacity="1">
    <g transform="translate(196.112988, 229.543998)">
      <g>
        <path d="M 5.59375 0 L 4.65625 0 L 1.6875 -4.015625 L 1.6875 0 L 0.734375 0 L 0.734375 -5.59375 L 1.65625 -5.59375 L 4.65625 -1.578125 L 4.65625 -5.59375 L 5.59375 -5.59375 Z M 5.59375 0 "/>
      </g>
    </g>
  </g>
  <g fill="#272727" fill-opacity="1">
    <g transform="translate(203.841053, 229.543998)">
      <g>
        <path d="M 1.6875 0 L 0.734375 0 L 0.734375 -5.59375 L 1.6875 -5.59375 Z M 1.6875 0 "/>
      </g>
    </g>
  </g>
  <g fill="#272727" fill-opacity="1">
    <g transform="translate(207.649075, 229.543998)">
      <g>
        <path d="M 5.59375 0 L 4.65625 0 L 1.6875 -4.015625 L 1.6875 0 L 0.734375 0 L 0.734375 -5.59375 L 1.65625 -5.59375 L 4.65625 -1.578125 L 4.65625 -5.59375 L 5.59375 -5.59375 Z M 5.59375 0 "/>
      </g>
    </g>
  </g>
  <g fill="#272727" fill-opacity="1">
    <g transform="translate(215.37714, 229.543998)">
      <g>
        <path d="M 4.5625 -2.75 L 5.390625 -2.75 L 5.390625 -0.6875 C 5.097656 -0.46875 4.753906 -0.289062 4.359375 -0.15625 C 3.972656 -0.0195312 3.59375 0.046875 3.21875 0.046875 C 2.382812 0.046875 1.679688 -0.222656 1.109375 -0.765625 C 0.546875 -1.316406 0.265625 -1.992188 0.265625 -2.796875 C 0.265625 -3.597656 0.550781 -4.269531 1.125 -4.8125 C 1.707031 -5.351562 2.421875 -5.625 3.265625 -5.625 C 3.660156 -5.625 4.050781 -5.550781 4.4375 -5.40625 C 4.820312 -5.269531 5.148438 -5.082031 5.421875 -4.84375 L 4.890625 -4.140625 C 4.429688 -4.566406 3.890625 -4.78125 3.265625 -4.78125 C 2.703125 -4.78125 2.222656 -4.585938 1.828125 -4.203125 C 1.429688 -3.816406 1.234375 -3.347656 1.234375 -2.796875 C 1.234375 -2.234375 1.429688 -1.757812 1.828125 -1.375 C 2.222656 -1 2.707031 -0.8125 3.28125 -0.8125 C 3.707031 -0.8125 4.132812 -0.9375 4.5625 -1.1875 Z M 4.5625 -2.75 "/>
      </g>
    </g>
  </g>
  <g fill="#272727" fill-opacity="1">
    <g transform="translate(226.217221, 229.543998)">
      <g>
        <path d="M 3.21875 -5.625 C 3.613281 -5.625 4 -5.546875 4.375 -5.390625 C 4.75 -5.242188 5.070312 -5.035156 5.34375 -4.765625 L 4.796875 -4.078125 C 4.585938 -4.296875 4.34375 -4.46875 4.0625 -4.59375 C 3.789062 -4.71875 3.515625 -4.78125 3.234375 -4.78125 C 2.671875 -4.78125 2.195312 -4.585938 1.8125 -4.203125 C 1.425781 -3.828125 1.234375 -3.363281 1.234375 -2.8125 C 1.234375 -2.257812 1.425781 -1.789062 1.8125 -1.40625 C 2.195312 -1.03125 2.671875 -0.84375 3.234375 -0.84375 C 3.816406 -0.84375 4.335938 -1.0625 4.796875 -1.5 L 5.359375 -0.875 C 5.066406 -0.59375 4.726562 -0.367188 4.34375 -0.203125 C 3.957031 -0.0351562 3.570312 0.046875 3.1875 0.046875 C 2.363281 0.046875 1.671875 -0.222656 1.109375 -0.765625 C 0.546875 -1.316406 0.265625 -2 0.265625 -2.8125 C 0.265625 -3.601562 0.546875 -4.269531 1.109375 -4.8125 C 1.679688 -5.351562 2.382812 -5.625 3.21875 -5.625 Z M 3.21875 -5.625 "/>
      </g>
    </g>
  </g>
  <g fill="#272727" fill-opacity="1">
    <g transform="translate(233.185274, 229.543998)">
      <g>
        <path d="M 4.734375 -4.75 L 1.6875 -4.75 L 1.6875 -3.234375 L 4.421875 -3.234375 L 4.421875 -2.390625 L 1.6875 -2.390625 L 1.6875 -0.84375 L 4.828125 -0.84375 L 4.828125 0 L 0.734375 0 L 0.734375 -5.59375 L 4.734375 -5.59375 Z M 4.734375 -4.75 "/>
      </g>
    </g>
  </g>
  <g fill="#272727" fill-opacity="1">
    <g transform="translate(239.825324, 229.543998)">
      <g>
        <path d="M 5.59375 0 L 4.65625 0 L 1.6875 -4.015625 L 1.6875 0 L 0.734375 0 L 0.734375 -5.59375 L 1.65625 -5.59375 L 4.65625 -1.578125 L 4.65625 -5.59375 L 5.59375 -5.59375 Z M 5.59375 0 "/>
      </g>
    </g>
  </g>
  <g fill="#272727" fill-opacity="1">
    <g transform="translate(247.553389, 229.543998)">
      <g>
        <path d="M 4.5625 -4.75 L 2.78125 -4.75 L 2.78125 0 L 1.84375 0 L 1.84375 -4.75 L 0.078125 -4.75 L 0.078125 -5.59375 L 4.5625 -5.59375 Z M 4.5625 -4.75 "/>
      </g>
    </g>
  </g>
  <g fill="#272727" fill-opacity="1">
    <g transform="translate(253.57743, 229.543998)">
      <g>
        <path d="M 4.734375 -4.75 L 1.6875 -4.75 L 1.6875 -3.234375 L 4.421875 -3.234375 L 4.421875 -2.390625 L 1.6875 -2.390625 L 1.6875 -0.84375 L 4.828125 -0.84375 L 4.828125 0 L 0.734375 0 L 0.734375 -5.59375 L 4.734375 -5.59375 Z M 4.734375 -4.75 "/>
      </g>
    </g>
  </g>
  <g fill="#272727" fill-opacity="1">
    <g transform="translate(260.217479, 229.543998)">
      <g>
        <path d="M 4.28125 0 L 3.265625 -1.703125 C 3.210938 -1.691406 3.128906 -1.6875 3.015625 -1.6875 L 1.6875 -1.6875 L 1.6875 0 L 0.734375 0 L 0.734375 -5.59375 L 3.015625 -5.59375 C 3.722656 -5.59375 4.273438 -5.425781 4.671875 -5.09375 C 5.066406 -4.757812 5.265625 -4.289062 5.265625 -3.6875 C 5.265625 -3.238281 5.160156 -2.859375 4.953125 -2.546875 C 4.753906 -2.242188 4.472656 -2.019531 4.109375 -1.875 L 5.359375 0 Z M 1.6875 -2.53125 L 3.015625 -2.53125 C 3.921875 -2.53125 4.375 -2.90625 4.375 -3.65625 C 4.375 -4.382812 3.921875 -4.75 3.015625 -4.75 L 1.6875 -4.75 Z M 1.6875 -2.53125 "/>
      </g>
    </g>
  </g>
  <g fill="#272727" fill-opacity="1">
    <g transform="translate(73.521196, 213.066622)">
      <g>
        <path d="M 14 -14.59375 L 8.546875 -14.59375 L 8.546875 0 L 5.65625 0 L 5.65625 -14.59375 L 0.21875 -14.59375 L 0.21875 -17.1875 L 14 -17.1875 Z M 14 -14.59375 "/>
      </g>
    </g>
  </g>
  <g fill="#272727" fill-opacity="1">
    <g transform="translate(90.535685, 213.066622)">
      <g>
        <path d="M 13.359375 -3.875 L 4.6875 -3.875 L 3.046875 0 L 0.03125 0 L 7.609375 -17.1875 L 10.59375 -17.1875 L 18.109375 0 L 15 0 Z M 12.25 -6.453125 L 9.015625 -14.09375 L 5.765625 -6.453125 Z M 12.25 -6.453125 "/>
      </g>
    </g>
  </g>
  <g fill="#272727" fill-opacity="1">
    <g transform="translate(111.453753, 213.066622)">
      <g>
        <path d="M 5.15625 -2.625 L 12.59375 -2.625 L 12.59375 0 L 2.265625 0 L 2.265625 -17.1875 L 5.15625 -17.1875 Z M 5.15625 -2.625 "/>
      </g>
    </g>
  </g>
  <g fill="#272727" fill-opacity="1">
    <g transform="translate(127.363452, 213.066622)">
      <g>
        <path d="M 13.734375 0 L 8.078125 -7.59375 L 5.15625 -4.375 L 5.15625 0 L 2.265625 0 L 2.265625 -17.1875 L 5.15625 -17.1875 L 5.15625 -8.296875 L 13.359375 -17.1875 L 16.78125 -17.1875 L 10.125 -9.84375 L 17.21875 0 Z M 13.734375 0 "/>
      </g>
    </g>
  </g>
  <g fill="#272727" fill-opacity="1">
    <g transform="translate(156.924192, 213.066622)">
      <g>
        <path d="M 14 -14.59375 L 8.546875 -14.59375 L 8.546875 0 L 5.65625 0 L 5.65625 -14.59375 L 0.21875 -14.59375 L 0.21875 -17.1875 L 14 -17.1875 Z M 14 -14.59375 "/>
      </g>
    </g>
  </g>
  <g fill="#272727" fill-opacity="1">
    <g transform="translate(173.938677, 213.066622)">
      <g>
        <path d="M 3.453125 -14.765625 C 5.210938 -16.429688 7.375 -17.265625 9.9375 -17.265625 C 12.507812 -17.265625 14.671875 -16.429688 16.421875 -14.765625 C 18.179688 -13.109375 19.0625 -11.050781 19.0625 -8.59375 C 19.0625 -6.132812 18.179688 -4.066406 16.421875 -2.390625 C 14.671875 -0.710938 12.507812 0.125 9.9375 0.125 C 7.375 0.125 5.210938 -0.710938 3.453125 -2.390625 C 1.703125 -4.066406 0.828125 -6.132812 0.828125 -8.59375 C 0.828125 -11.050781 1.703125 -13.109375 3.453125 -14.765625 Z M 9.96875 -14.65625 C 8.269531 -14.65625 6.8125 -14.070312 5.59375 -12.90625 C 4.382812 -11.738281 3.78125 -10.300781 3.78125 -8.59375 C 3.78125 -6.894531 4.390625 -5.453125 5.609375 -4.265625 C 6.828125 -3.078125 8.28125 -2.484375 9.96875 -2.484375 C 11.65625 -2.484375 13.097656 -3.078125 14.296875 -4.265625 C 15.492188 -5.453125 16.09375 -6.894531 16.09375 -8.59375 C 16.09375 -10.300781 15.492188 -11.738281 14.296875 -12.90625 C 13.097656 -14.070312 11.65625 -14.65625 9.96875 -14.65625 Z M 9.96875 -14.65625 "/>
      </g>
    </g>
  </g>
  <g fill="#272727" fill-opacity="1">
    <g transform="translate(205.758091, 213.066622)">
      <g>
        <path d="M 5.15625 -2.625 L 12.59375 -2.625 L 12.59375 0 L 2.265625 0 L 2.265625 -17.1875 L 5.15625 -17.1875 Z M 5.15625 -2.625 "/>
      </g>
    </g>
  </g>
  <g fill="#272727" fill-opacity="1">
    <g transform="translate(221.667792, 213.066622)">
      <g>
        <path d="M 14.546875 -14.59375 L 5.15625 -14.59375 L 5.15625 -9.953125 L 13.5625 -9.953125 L 13.5625 -7.34375 L 5.15625 -7.34375 L 5.15625 -2.609375 L 14.828125 -2.609375 L 14.828125 0 L 2.265625 0 L 2.265625 -17.1875 L 14.546875 -17.1875 Z M 14.546875 -14.59375 "/>
      </g>
    </g>
  </g>
  <g fill="#272727" fill-opacity="1">
    <g transform="translate(240.572698, 213.066622)">
      <g>
        <path d="M 13.359375 -3.875 L 4.6875 -3.875 L 3.046875 0 L 0.03125 0 L 7.609375 -17.1875 L 10.59375 -17.1875 L 18.109375 0 L 15 0 Z M 12.25 -6.453125 L 9.015625 -14.09375 L 5.765625 -6.453125 Z M 12.25 -6.453125 "/>
      </g>
    </g>
  </g>
  <g fill="#272727" fill-opacity="1">
    <g transform="translate(261.490768, 213.066622)">
      <g>
        <path d="M 13.171875 0 L 10.015625 -5.203125 C 9.859375 -5.191406 9.597656 -5.1875 9.234375 -5.1875 L 5.15625 -5.1875 L 5.15625 0 L 2.265625 0 L 2.265625 -17.1875 L 9.234375 -17.1875 C 11.429688 -17.1875 13.132812 -16.675781 14.34375 -15.65625 C 15.550781 -14.632812 16.15625 -13.191406 16.15625 -11.328125 C 16.15625 -9.953125 15.847656 -8.785156 15.234375 -7.828125 C 14.617188 -6.878906 13.738281 -6.1875 12.59375 -5.75 L 16.453125 0 Z M 5.15625 -7.78125 L 9.234375 -7.78125 C 12.015625 -7.78125 13.40625 -8.9375 13.40625 -11.25 C 13.40625 -13.476562 12.015625 -14.59375 9.234375 -14.59375 L 5.15625 -14.59375 Z M 5.15625 -7.78125 "/>
      </g>
    </g>
  </g>
  <g fill="#272727" fill-opacity="1">
    <g transform="translate(282.040567, 213.066622)">
      <g>
        <path d="M 17.171875 0 L 14.3125 0 L 5.15625 -12.328125 L 5.15625 0 L 2.265625 0 L 2.265625 -17.1875 L 5.109375 -17.1875 L 14.3125 -4.84375 L 14.3125 -17.1875 L 17.171875 -17.1875 Z M 17.171875 0 "/>
      </g>
    </g>
  </g>
</svg>